<?xml version="1.0" standalone="no"?>
<!DOCTYPE svg PUBLIC "-//W3C//DTD SVG 20010904//EN"
 "http://www.w3.org/TR/2001/REC-SVG-20010904/DTD/svg10.dtd">
<svg version="1.0" xmlns="http://www.w3.org/2000/svg"
 width="762.000000pt" height="616.000000pt" viewBox="0 0 762.000000 616.000000"
 preserveAspectRatio="xMidYMid meet">
<metadata>
Created by potrace 1.15, written by Peter Selinger 2001-2017
</metadata>
<g transform="translate(0.000000,616.000000) scale(0.100000,-0.100000)"
fill="#000000" stroke="none">
<path d="M3428 4463 c-24 -517 82 -1110 279 -1563 98 -225 239 -463 375 -631
71 -89 238 -269 249 -269 8 0 0 28 -26 85 -8 16 -26 59 -40 95 -14 36 -35 84
-46 107 -10 24 -19 48 -19 54 0 6 -6 25 -14 42 -24 53 -64 196 -86 306 -23
120 -26 272 -6 348 38 143 145 267 393 452 40 30 71 56 69 58 -1 2 -28 -8 -59
-22 -183 -84 -392 -75 -543 23 -209 137 -377 447 -474 877 -29 130 -28 125
-39 125 -5 0 -11 -39 -13 -87z"/>
<path d="M3959 4235 c-3 -59 -14 -68 -23 -20 -4 19 -10 35 -14 35 -11 -1 -43
-70 -33 -70 5 0 12 8 14 18 3 10 5 5 6 -12 1 -21 -3 -27 -14 -23 -11 5 -13 0
-11 -21 2 -15 1 -21 -1 -13 -7 21 -45 -66 -39 -87 3 -9 1 -24 -5 -32 -8 -11
-9 -9 -4 10 5 19 4 22 -4 10 -12 -18 -14 -46 -3 -53 4 -2 1 -2 -5 -1 -15 4
-36 -32 -29 -49 2 -7 5 -4 5 6 1 26 16 20 17 -8 1 -14 -2 -22 -8 -19 -5 3 -2
-8 6 -25 19 -37 26 -39 20 -8 -4 20 -4 20 5 2 4 -11 6 -23 4 -28 -7 -12 58
-88 70 -80 6 4 8 0 4 -9 -5 -15 9 -38 25 -38 4 0 6 25 5 55 -2 39 1 55 10 55
15 0 17 16 3 25 -5 3 -10 15 -10 26 0 13 4 18 11 13 9 -5 10 10 6 57 -3 40 -2
53 3 34 4 -16 9 -28 10 -25 5 12 6 140 1 140 -9 0 -11 119 -3 124 5 3 6 -9 4
-27 -5 -38 5 -33 12 6 2 14 0 29 -5 33 -5 3 -7 10 -4 15 4 5 -1 9 -9 9 -10 0
-16 -10 -17 -25z"/>
<path d="M4217 3995 c-59 -22 -93 -51 -116 -98 -51 -105 2 -218 120 -257 49
-16 100 -2 155 43 86 71 87 206 2 270 -26 21 -114 61 -122 56 0 0 -18 -7 -39
-14z"/>
<path d="M3100 3993 c-42 -17 -89 -54 -84 -67 8 -21 -6 -42 -16 -25 -10 15
-25 -94 -16 -116 3 -8 1 -15 -4 -15 -6 0 -5 -11 2 -25 12 -28 31 -35 21 -8 -4
11 -3 14 5 9 7 -4 12 -18 12 -32 0 -29 25 -42 51 -26 22 14 29 15 29 4 0 -5
-12 -13 -27 -18 l-28 -11 40 -11 c30 -9 41 -9 47 1 6 9 8 9 8 0 0 -7 8 -13 18
-13 13 0 14 2 4 9 -11 7 -11 9 2 14 8 3 16 1 18 -5 6 -17 43 -1 80 35 37 34
40 67 7 67 -10 0 -19 5 -19 10 0 6 13 10 29 10 25 0 28 -3 25 -22 -4 -21 -3
-20 6 2 6 14 9 41 6 60 -4 19 -6 43 -7 53 0 10 -5 15 -11 11 -7 -5 -9 -2 -5 8
3 9 -1 24 -8 35 -14 17 -14 17 -16 -7 -1 -14 -1 -28 0 -32 0 -5 -3 -8 -9 -8
-5 0 -11 9 -11 20 -3 41 -5 45 -21 44 -10 -1 -17 1 -16 5 2 19 -5 29 -28 39
-14 7 -23 8 -20 3 3 -5 -5 -8 -18 -7 -13 0 -22 4 -19 9 5 8 -5 8 -27 0z"/>
<path d="M3374 3474 c5 -14 4 -15 -8 -5 -11 9 -24 10 -53 2 -21 -6 -52 -11
-70 -11 -17 0 -34 -6 -36 -12 -4 -10 -8 -10 -15 1 -7 10 -21 12 -46 8 -20 -3
-38 -1 -41 4 -4 5 -11 9 -17 9 -7 0 -2 -9 11 -21 28 -26 22 -34 -12 -16 -15 8
-24 17 -20 20 3 4 1 7 -5 7 -19 0 -33 -35 -20 -48 7 -7 15 -12 20 -12 7 0 29
-19 92 -77 18 -18 37 -29 41 -25 5 4 5 2 2 -4 -3 -6 15 -33 41 -60 25 -27 40
-41 33 -31 -9 11 -10 17 -2 17 10 0 15 -14 12 -33 -1 -4 6 -22 15 -39 12 -24
18 -28 25 -17 7 11 9 10 10 -6 1 -11 1 -28 0 -37 -1 -10 2 -18 7 -18 5 0 7
-11 4 -25 -2 -14 0 -31 5 -38 11 -15 9 -225 -2 -251 -6 -14 -5 -17 4 -11 10 6
11 3 2 -13 -6 -11 -11 -32 -11 -46 0 -14 -5 -28 -11 -31 -12 -8 -2 -113 14
-133 5 -7 6 -16 2 -20 -4 -4 -10 -1 -12 6 -4 10 -8 10 -19 1 -11 -9 -14 -8
-14 5 0 9 5 16 10 16 6 0 10 15 9 33 0 27 -4 21 -25 -37 -26 -75 -30 -100 -13
-76 9 12 10 12 5 -3 -3 -10 -6 -26 -6 -34 0 -9 -3 -13 -7 -10 -3 4 -12 -2 -20
-13 -10 -14 -11 -29 -4 -62 12 -50 6 -65 -6 -18 l-9 33 -16 -42 c-15 -37 -15
-42 -2 -37 9 4 12 2 8 -5 -4 -6 0 -15 7 -20 7 -4 10 -11 6 -15 -4 -4 -13 1
-21 12 -13 17 -16 15 -40 -38 -14 -31 -26 -63 -26 -70 0 -8 -5 -19 -12 -26 -9
-9 -9 -12 0 -12 7 0 12 -5 12 -11 0 -5 -4 -8 -9 -4 -11 6 -36 -33 -27 -43 3
-3 6 1 6 8 0 7 3 10 7 7 4 -4 19 5 35 20 29 28 37 70 16 91 -8 8 -8 15 2 27
18 22 32 0 24 -37 -3 -17 -1 -28 5 -28 11 0 14 11 12 40 0 10 1 11 5 3 10 -22
26 -14 20 10 -3 12 -3 16 0 9 10 -21 52 32 49 61 -2 15 3 28 11 31 7 3 11 12
8 21 -4 8 -1 15 6 15 7 0 10 -8 7 -20 -7 -26 5 -25 30 3 15 16 20 32 18 59 -3
28 0 35 11 31 8 -3 14 1 14 10 0 8 -6 17 -12 20 -7 2 3 4 22 4 19 0 28 -2 20
-4 -14 -4 -53 -73 -46 -81 2 -1 39 48 81 111 48 72 74 120 70 128 -5 7 -4 10
1 6 6 -3 16 3 23 15 11 18 10 19 -11 13 -20 -5 -20 -4 -5 5 9 6 17 17 17 25 0
8 4 16 9 19 5 4 7 -4 3 -16 -3 -14 -2 -19 6 -14 7 4 12 13 12 20 0 8 7 19 16
27 8 7 13 21 11 31 -3 10 -1 15 4 12 19 -11 20 26 3 66 -10 22 -21 40 -25 40
-3 0 -9 15 -12 33 -3 17 -20 58 -38 89 -27 47 -35 55 -47 45 -12 -9 -14 -8
-10 8 2 12 10 19 20 17 14 -2 15 1 5 23 -7 14 -14 25 -17 25 -3 0 -12 -17 -22
-38 -13 -31 -16 -33 -17 -14 -1 13 8 35 19 49 11 14 20 31 20 37 0 6 -4 4 -10
-4 -5 -8 -12 -11 -16 -7 -4 3 -2 13 5 20 12 15 -7 85 -32 116 -10 12 -9 13 1
7 10 -6 9 1 -3 24 -9 17 -14 38 -11 45 2 7 -4 31 -15 52 -11 21 -17 48 -14 60
3 12 1 25 -5 28 -5 3 -10 17 -10 31 0 13 -5 24 -11 24 -6 0 -8 -7 -5 -16z"/>
</g>
</svg>
